#!OML:ASF F:\VICON\USERDATA\INSTALL\rory3\rory3.ASF
:FULLY-SPECIFIED
:DEGREES
534
root 4.93279 16.4458 2.244 6.22829 -12.8044 -7.20501
lowerback 21.0032 -0.771422 4.53716
upperback 4.16857 0.0855644 1.78525
thorax -7.18772 -0.0548653 -0.674388
lowerneck -14.5833 -0.493718 -2.23471
upperneck 37.1178 0.430401 -1.70797
head 15.5048 -0.438981 -0.274254
rclavicle 2.09718e-014 -7.55382e-015
rhumerus -38.4772 2.86946 -7.42446
rradius 27.1087
rwrist 13.3339
rhand -23.895 -50.1332
rfingers 7.12502
rthumb 2.57872 -80.0973
lclavicle 2.09718e-014 -7.55382e-015
lhumerus -35.5147 -2.49564 1.16012
lradius 22.8984
lwrist 9.34074
lhand -22.6266 -28.3478
lfingers 7.12502
lthumb 3.80367 1.59798
rfemur -105.117 0.719423 27.6361
rtibia 102.065
rfoot 49.7732 4.19971
rtoes -2.23575
lfemur -31.2908 1.39485 -23.0759
ltibia 51.6649
lfoot -22.9926 10.8489
ltoes 13.7238
535
root 4.9312 16.45 2.23346 6.25583 -12.8574 -7.12751
lowerback 21.1432 -0.730152 4.37843
upperback 4.11082 0.116173 1.78747
thorax -7.32449 -0.0397878 -0.588771
lowerneck -14.5772 -0.493408 -2.24086
upperneck 37.1577 0.44008 -1.72682
head 15.5234 -0.439023 -0.280004
rclavicle 1.75924e-014 2.127e-014
rhumerus -38.3906 2.71974 -7.33726
rradius 26.9131
rwrist 13.6341
rhand -23.791 -50.2327
rfingers 7.12502
rthumb 2.67918 -80.1956
lclavicle 1.75924e-014 2.127e-014
lhumerus -35.5076 -2.26088 1.03526
lradius 22.8956
lwrist 8.88926
lhand -22.8185 -27.6272
lfingers 7.12502
lthumb 3.61838 2.32181
rfemur -105.182 0.822936 27.5187
rtibia 102.016
rfoot 49.8948 4.13046
rtoes -1.85616
lfemur -31.356 1.44014 -23.1383
ltibia 51.5797
lfoot -22.9183 10.8128
ltoes 13.6562
536
root 4.93217 16.4566 2.22515 6.26476 -12.8908 -7.15254
lowerback 21.2812 -0.71015 4.3755
upperback 4.05636 0.153964 1.80668
thorax -7.45574 -0.0242132 -0.575298
lowerneck -14.5656 -0.511803 -2.30331
upperneck 37.2623 0.411561 -1.67105
head 15.5725 -0.453624 -0.251213
rclavicle 2.85256e-014 -5.1684e-015
rhumerus -38.3393 2.56175 -7.23217
rradius 26.7799
rwrist 13.912
rhand -23.7101 -50.0498
rfingers 7.12502
rthumb 2.75737 -80.0117
lclavicle 2.85256e-014 -5.1684e-015
lhumerus -35.4217 -1.95328 0.840985
lradius 22.8041
lwrist 8.10982
lhand -23.2613 -27.6527
lfingers 7.12502
lthumb 3.19076 2.30317
rfemur -105.207 0.903028 27.4985
rtibia 102.005
rfoot 49.9661 3.89882
rtoes -1.91631
lfemur -31.3696 1.47889 -23.0991
ltibia 51.5096
lfoot -22.8424 10.7894
ltoes 13.6401
537
root 4.93158 16.4637 2.21999 6.28302 -12.9156 -7.31199
lowerback 21.3501 -0.710443 4.48331
upperback 4.07097 0.184398 1.85268
thorax -7.47445 -0.0120204 -0.594622
lowerneck -14.6052 -0.509654 -2.29613
upperneck 37.2527 0.41369 -1.67014
head 15.5772 -0.451558 -0.251773
rclavicle -2.85256e-014 2.20651e-014
rhumerus -38.2456 2.54475 -7.23963
rradius 26.6952
rwrist 13.9229
rhand -23.8669 -49.79
rfingers 7.12502
rthumb 2.60593 -79.7538
lclavicle -2.85256e-014 2.20651e-014
lhumerus -35.3233 -1.73916 0.677879
lradius 22.7224
lwrist 7.80538
lhand -23.0875 -27.9226
lfingers 7.12502
lthumb 3.35862 2.03067
rfemur -105.143 1.02049 27.6192
rtibia 101.964
rfoot 49.9743 4.08057
rtoes -2.16022
lfemur -31.3622 1.53941 -22.9066
ltibia 51.4648
lfoot -22.7695 10.7737
ltoes 13.6187
538
root 4.92962 16.4659 2.21706 6.28109 -12.9182 -7.41389
lowerback 21.3607 -0.715673 4.55333
upperback 4.13428 0.191792 1.87057
thorax -7.40997 -0.00833857 -0.617395
lowerneck -14.6691 -0.507013 -2.1685
upperneck 37.1693 0.437958 -1.82459
head 15.5518 -0.443572 -0.335407
rclavicle 1.49089e-015 -2.76311e-014
rhumerus -38.15 2.37206 -7.23448
rradius 26.6383
rwrist 13.8788
rhand -23.5206 -49.6631
rfingers 7.12502
rthumb 2.94038 -79.6226
lclavicle 1.49089e-015 -2.76311e-014
lhumerus -35.2343 -1.71094 0.649699
lradius 22.7076
lwrist 8.01136
lhand -22.7996 -27.6105
lfingers 7.12502
lthumb 3.63667 2.33825
rfemur -105.094 1.10628 27.6928
rtibia 101.941
rfoot 50.0075 4.54523
rtoes -2.19648
lfemur -31.3445 1.59758 -22.7743
ltibia 51.43
lfoot -22.7306 10.721
ltoes 13.6633
539
root 4.92919 16.4681 2.21721 6.2739 -12.9082 -7.42733
lowerback 21.3698 -0.716113 4.57713
upperback 4.14749 0.196301 1.86987
thorax -7.39996 -0.0064203 -0.632956
lowerneck -14.6325 -0.512052 -2.06778
upperneck 37.0824 0.455187 -1.97921
head 15.5008 -0.44194 -0.414858
rclavicle -6.95746e-015 -1.55052e-014
rhumerus -38.1464 2.1678 -7.15455
rradius 26.6048
rwrist 13.8882
rhand -23.0231 -49.5557
rfingers 7.12502
rthumb 3.42077 -79.508
lclavicle -6.95746e-015 -1.55052e-014
lhumerus -35.1755 -1.96988 0.789699
lradius 22.7498
lwrist 8.4562
lhand -22.9065 -27.6425
lfingers 7.12502
lthumb 3.53335 2.30797
rfemur -105.103 1.11668 27.6825
rtibia 101.987
rfoot 50.0586 4.68796
rtoes -2.51716
lfemur -31.3067 1.61535 -22.7502
ltibia 51.3704
lfoot -22.7446 10.6447
ltoes 13.7346
540
root 4.93051 16.4746 2.21548 6.28134 -12.9711 -7.36776
lowerback 21.5146 -0.690397 4.45512
upperback 4.05145 0.217326 1.88054
thorax -7.58192 0.00237045 -0.556326
lowerneck -14.6511 -0.519621 -2.03272
upperneck 37.1467 0.466699 -2.06661
head 15.5379 -0.445583 -0.457476
rclavicle 3.4191e-014 -2.64384e-014
rhumerus -38.1008 2.15185 -7.05496
rradius 26.5783
rwrist 13.9026
rhand -22.9707 -49.5958
rfingers 7.12502
rthumb 3.47144 -79.5473
lclavicle 3.4191e-014 -2.64384e-014
lhumerus -35.2186 -2.50263 1.00774
lradius 22.8634
lwrist 9.12033
lhand -22.752 -27.8539
lfingers 7.12502
lthumb 3.6826 2.09399
rfemur -105.135 1.1607 27.6101
rtibia 102.021
rfoot 50.1491 4.93024
rtoes -3.124
lfemur -31.2697 1.63315 -22.819
ltibia 51.263
lfoot -22.7358 10.6394
ltoes 13.75
541
root 4.93432 16.482 2.21639 6.23305 -13.0825 -7.26327
lowerback 21.6937 -0.665142 4.29871
upperback 3.94713 0.230284 1.87337
thorax -7.79178 0.00769317 -0.477071
lowerneck -14.7518 -0.530272 -2.00736
upperneck 37.3557 0.468039 -2.12079
head 15.6669 -0.453108 -0.488835
rclavicle 1.83876e-014 -7.95139e-016
rhumerus -38.0226 2.17584 -6.97126
rradius 26.6072
rwrist 13.8715
rhand -22.8616 -49.9198
rfingers 7.12502
rthumb 3.5768 -79.8696
lclavicle 1.83876e-014 -7.95139e-016
lhumerus -35.2775 -2.79413 1.05646
lradius 22.9505
lwrist 9.43626
lhand -22.4848 -27.7309
lfingers 7.12502
lthumb 3.94065 2.2124
rfemur -105.098 1.19815 27.4966
rtibia 102.03
rfoot 50.1778 5.09824
rtoes -2.93861
lfemur -31.1427 1.6709 -22.9556
ltibia 51.1159
lfoot -22.6777 10.7091
ltoes 13.6512
